<?xml version="1.0" encoding="UTF-8" standalone="no"?>
<?xml-stylesheet type="text/css" href="https://fonts.googleapis.com/css?family=Montserrat:700" ?>
<svg xmlns:dc="http://purl.org/dc/elements/1.1/" xmlns:cc="http://creativecommons.org/ns#" xmlns:rdf="http://www.w3.org/1999/02/22-rdf-syntax-ns#" xmlns:svg="http://www.w3.org/2000/svg" xmlns="http://www.w3.org/2000/svg" xmlns:sodipodi="http://sodipodi.sourceforge.net/DTD/sodipodi-0.dtd" xmlns:inkscape="http://www.inkscape.org/namespaces/inkscape" version="1.1" preserveAspectRatio="xMidYMid meet" viewBox="862 393 125 125" id="svg2" inkscape:version="0.91 r13725" sodipodi:docname="ADT-Logo.svg" inkscape:export-filename="C:\Users\Yannick\Desktop\ADT-Logo.png" inkscape:export-xdpi="368.64001" inkscape:export-ydpi="368.64001">
  <metadata id="metadata59">
    <rdf:RDF>
      <cc:Work rdf:about="">
        <dc:format>image/svg+xml</dc:format>
        <dc:type rdf:resource="http://purl.org/dc/dcmitype/StillImage"/>
        <dc:title/>
      </cc:Work>
    </rdf:RDF>
  </metadata>
  <defs id="defs57"/>
  <sodipodi:namedview pagecolor="#ffffff" bordercolor="#666666" borderopacity="1" objecttolerance="10" gridtolerance="10" guidetolerance="10" inkscape:pageopacity="0" inkscape:pageshadow="2" inkscape:window-width="1920" inkscape:window-height="1017" id="namedview55" showgrid="false" inkscape:snap-to-guides="true" inkscape:snap-page="true" inkscape:zoom="1.888" inkscape:cx="-53.230932" inkscape:cy="62.5" inkscape:window-x="-8" inkscape:window-y="-8" inkscape:window-maximized="1" inkscape:current-layer="svg2"/>
  <g data-item-type="image" data-item="Image" data-logo-item="" id="logo__item--logo_0" class="logo__item">
    <g class="logo__item__inner" transform="translate(852.1853865115985 385.5) scale(0.9708615131786865 0.9708615131786865) rotate(0 0 0)" id="g5">
      <g id="g7">
        <path fill="#00517B" d="M124.2,96.7l-8.7-4.3l-2.2-1.1l-0.3-0.2l0,0c-10.2,20.6-35.1,29.1-55.8,18.9c-1.2-0.6-2.3-1.2-3.4-1.9   l-5.7,9.3l-0.8,1.4v0c0.3,0.2,0.5,0.3,0.8,0.4l-3.1,7.3l17.1,6.4l2.4-7.3c3.5,0.7,7,1.1,10.5,1.2l1,7.6l18-3l-1.5-7.2   c3.4-1.1,6.7-2.5,9.8-4.3l4.5,5.8l14.1-11.6l-4.8-5.3C119.2,105.3,122,101.2,124.2,96.7z" data-part-id="logo__item--logo_0__0" id="path9"/>
        <path fill="#BABAAF" d="M90.3,80l-4.9-2.4c-2.7,5.5-9.3,7.7-14.7,5c-0.3-0.1-0.6-0.3-0.9-0.5l-2.9,4.7c0.4,0.3,0.9,0.5,1.3,0.7   C76.4,91.6,86.3,88.2,90.3,80z" data-part-id="logo__item--logo_0__1" id="path11"/>
        <path fill="#798C7D" d="M117.2,72.3c0-0.5,0-0.9,0-1.4c0-0.8-0.1-1.5-0.2-2.3c0-0.2-0.1-0.5-0.1-0.7c-0.1-0.9-0.2-1.9-0.4-2.8   c-2.3-12.4-10.3-23.7-22.5-29.7c-12.6-6.2-26.8-5.5-38.3,0.8c-0.2,0.1-0.4,0.2-0.5,0.3c-0.2,0.1-0.4,0.2-0.6,0.4l5.1,8.8   c0.1-0.1,0.3-0.2,0.4-0.2c1.6-0.9,3.2-1.6,4.9-2.3c7.7-2.7,16.5-2.5,24.5,1.4c5,2.5,9.1,6.1,12,10.4c2.5,3.6,4.2,7.7,5,12   c1.2,6.5,0.4,13.4-2.7,19.7l9.1,4.5c0.1-0.1,0.1-0.3,0.2-0.4c1.7-3.6,2.9-7.3,3.5-11l0,0c0.4-2.3,0.6-4.6,0.6-6.8   C117.2,72.7,117.2,72.5,117.2,72.3z" data-part-id="logo__item--logo_0__2" id="path13"/>
        <path fill="#BABAAF" d="M80.4,62.9c5.5,2.7,7.7,9.3,5,14.7l4.9,2.4c4-8.2,0.7-18-7.5-22.1c-5.2-2.5-11-2.1-15.6,0.6l2.8,4.7   C73.1,61.4,77,61.2,80.4,62.9z" data-part-id="logo__item--logo_0__3" id="path15"/>
        <g id="g17">
          <path fill="#43312B" d="M90.3,80c-4,8.2-13.9,11.5-22.1,7.5c-0.5-0.2-0.9-0.5-1.3-0.7c-7.2-4.4-9.9-13.6-6.1-21.3    c1.5-3,3.8-5.4,6.4-6.9l-3.4-5.8c-3.8,2.2-7,5.5-9.1,9.8c-5.4,10.9-1.4,23.9,8.7,30.1c0.6,0.4,1.2,0.7,1.9,1    c11.5,5.7,25.4,1,31.1-10.6L90.3,80z" data-part-id="logo__item--logo_0__4" id="path19"/>
          <path fill="#43312B" d="M69.8,82.1c0.3,0.2,0.6,0.3,0.9,0.5c5.5,2.7,12.1,0.4,14.7-5c2.7-5.5,0.4-12.1-5-14.7    c-3.4-1.7-7.3-1.4-10.4,0.4c-1.8,1.1-3.3,2.6-4.3,4.7C63.1,73,65,79.2,69.8,82.1z" data-part-id="logo__item--logo_0__5" id="path21"/>
        </g>
        <g id="g23">
          <path fill="#118280" d="M113.1,90.7c-0.1,0.1-0.1,0.3-0.2,0.4l0.3,0.2C113.2,91.1,113.2,90.9,113.1,90.7z" data-part-id="logo__item--logo_0__6" id="path25"/>
          <path fill="#118280" d="M85.8,51.9c-7.3-3.6-15.5-3-22,0.8l3.4,5.8c4.6-2.7,10.5-3.1,15.6-0.6C91,62,94.4,71.8,90.3,80l6.1,3    c2.3-4.7,2.9-9.7,2-14.5C97.1,61.5,92.7,55.3,85.8,51.9z" data-part-id="logo__item--logo_0__7" id="path27"/>
          <path fill="#118280" d="M54.5,36.8l-5.8-9.9l-0.5-0.9l0,0c0,0-0.1,0-0.1,0.1l-4.8-6.3L29.2,31.4l5.3,5.9c-2.2,2.6-4.3,5.4-6,8.5    L21,42.7l-6.4,17.1l7.7,2.5c-0.7,3.4-1,6.9-1,10.3l-8.1,1l3,18l7.9-1.7c1.1,3.3,2.5,6.4,4.2,9.5l-6.5,4.9l11.6,14.1l5.9-5.3    c2.4,2.1,4.9,4,7.7,5.7v0l0.8-1.4l5.7-9.3c-18.2-11.1-25.2-34.5-15.6-54C41.9,46.7,47.7,40.7,54.5,36.8z" data-part-id="logo__item--logo_0__8" id="path29"/>
        </g>
        <path fill="#4FBCE9" d="M54.7,62.5c2.1-4.2,5.3-7.6,9.1-9.8l-0.9-1.6l0,0l-0.4-0.7l-2.8-4.9c-5.2,3-9.5,7.5-12.4,13.3   c-7.3,14.7-2,32.4,11.8,40.8l3.3-5.4l1-1.7C53.3,86.3,49.4,73.3,54.7,62.5z" data-part-id="logo__item--logo_0__9" id="path31"/>
        <g id="g33">
          <path fill="#89B965" d="M97.4,83.5l-1-0.5c-5.7,11.5-19.6,16.2-31.1,10.6c-0.7-0.3-1.3-0.7-1.9-1l-1,1.7l-3.3,5.4    c0.8,0.5,1.7,1,2.6,1.4c13.8,6.8,30.1,2.6,39-9.3c1.2-1.6,2.2-3.3,3.1-5.1L97.4,83.5L97.4,83.5z" data-part-id="logo__item--logo_0__10" id="path35"/>
          <path fill="#89B965" d="M129.8,72.8l7-0.9l-3-18l-6.8,1.4c-1.2-3.4-2.7-6.7-4.5-9.9l5.6-4.3L116.4,27l-5.3,4.8    c-2.7-2.3-5.6-4.4-8.8-6.2l2.8-6.8L88,12.4l-2.3,7c-3.5-0.7-7.1-1-10.6-0.9l-1-7.5l-18,3l1.6,7.5c-3.3,1.1-6.4,2.6-9.4,4.3l0,0    l0.5,0.9l5.8,9.9c0.2-0.1,0.4-0.2,0.6-0.4c0.2-0.1,0.4-0.2,0.5-0.3c11.5-6.2,25.7-7,38.3-0.8c12.2,6,20.2,17.3,22.5,29.7    c0.2,0.9,0.3,1.8,0.4,2.8c0,0.2,0.1,0.5,0.1,0.7c0.1,0.8,0.1,1.5,0.2,2.3c0,0.5,0,0.9,0,1.4c0,0.2,0,0.4,0,0.6    c0,2.3-0.2,4.6-0.6,6.8l0,0c-0.6,3.7-1.8,7.4-3.5,11c0,0.2,0.1,0.4,0.2,0.6l2.2,1.1l14.7,6.9l5.1-13.6l-6.6-2.2    C129.4,80,129.8,76.3,129.8,72.8z" data-part-id="logo__item--logo_0__11" id="path37"/>
        </g>
      </g>
    </g>
  </g>
  <g data-item-type="text" data-item="Business" id="logo__item--business" class="logo__item" transform="translate(2,2)">
    <g transform="matrix(1.2624544,0,0,1.2624544,883.70833,470.98227)" id="g40" class="logo__item__inner">
      <filter x="-1" y="-1" width="3" height="3" id="logo__item--business_Effect">
        <feOffset in="SourceAlpha" dx="4" dy="4.24" result="offsetShadow" id="feOffset43"/>
        <feGaussianBlur in="offsetShadow" stdDeviation="2" result="shadow" id="feGaussianBlur45"/>
        <feMerge id="feMerge47">
          <feMergeNode in="shadow" id="feMergeNode49"/>
          <feMergeNode in="SourceGraphic" id="feMergeNode51"/>
        </feMerge>
      </filter>
      <text data-part-id="logo__item--business" dy="0" dominant-baseline="auto" alignment-baseline="auto" font-size="32px" letter-spacing="0" font-weight="bold" font-style="normal" data-font-family="Montserrat" data-font-weight="bold" data-font-style="normal" data-ttf-url="/builder_assets/fontsttf/font-montserrat-bold-normal.ttf" data-font-filename="montserrat-bold-normal" data-filter-shadow="" data-filter-shadow-distance="6" data-filter-shadow-angle="45" id="text53" x="-6.7127781" y="-2.097743" style="font-style:normal;font-weight:bold;font-size:32px;font-family:Montserrat;letter-spacing:0;fill:#f9f901;filter:url(#logo__item--business_Effect)">ADT</text>
    </g>
  </g>
</svg>